<?xml version="1.0" standalone="no"?>
<!DOCTYPE svg PUBLIC "-//W3C//DTD SVG 20010904//EN"
 "http://www.w3.org/TR/2001/REC-SVG-20010904/DTD/svg10.dtd">
<svg version="1.0" xmlns="http://www.w3.org/2000/svg"
 width="3840.000000pt" height="2160.000000pt" viewBox="0 0 3840.000000 2160.000000"
 preserveAspectRatio="xMidYMid meet">

<g transform="translate(0.000000,2160.000000) scale(0.100000,-0.100000)"
fill="#000000" stroke="none">
<path d="M18840 21397 c-3 -2 -81 -7 -175 -11 -93 -4 -183 -9 -200 -11 -16 -2
-70 -6 -120 -10 -89 -6 -146 -11 -235 -20 -25 -3 -72 -8 -105 -11 -49 -5 -323
-41 -465 -61 -99 -14 -443 -78 -589 -109 -2240 -479 -4231 -1645 -5736 -3360
-313 -357 -561 -680 -834 -1089 -951 -1425 -1536 -3041 -1720 -4755 -47 -440
-56 -612 -56 -1170 0 -613 15 -875 81 -1390 406 -3193 2250 -6014 5029 -7695
576 -349 1249 -668 1905 -903 776 -278 1686 -484 2470 -557 36 -4 79 -8 95
-10 17 -2 73 -7 125 -10 52 -4 106 -8 119 -10 162 -26 1360 -26 1523 0 13 2
66 6 118 10 52 3 109 8 125 10 17 2 62 7 100 10 39 3 81 8 95 10 14 2 52 7 85
10 424 43 1185 193 1600 315 39 11 77 22 86 24 110 27 541 169 754 249 1251
468 2356 1136 3370 2036 123 110 608 587 726 716 131 142 233 260 353 405 144
175 132 160 215 266 33 43 71 92 84 108 382 490 840 1244 1129 1860 578 1229
895 2448 998 3841 18 232 24 944 11 1205 -88 1780 -594 3456 -1499 4970 -213
356 -527 814 -746 1088 -8 9 -45 55 -82 102 -37 47 -71 87 -74 90 -3 3 -13 15
-22 28 -8 12 -31 39 -49 60 -19 20 -45 51 -58 67 -36 47 -208 240 -315 355
-90 96 -450 455 -536 535 -95 88 -224 204 -270 241 -19 16 -42 36 -50 44 -9 8
-35 30 -57 48 -23 19 -52 43 -65 54 -13 11 -38 32 -57 46 -18 15 -43 35 -55
46 -11 10 -37 30 -56 45 -19 14 -41 32 -49 40 -27 25 -295 224 -421 313 -69
48 -130 92 -135 96 -73 59 -472 309 -734 459 -1062 610 -2247 1032 -3476 1237
-245 41 -579 83 -795 101 -41 4 -88 8 -105 10 -16 2 -84 7 -150 10 -66 4 -131
9 -145 12 -32 6 -954 16 -960 10z m7360 -8967 c-33 -345 -105 -616 -307 -1160
-257 -690 -519 -1201 -946 -1839 -166 -249 -210 -276 -557 -345 -438 -88 -773
-123 -1063 -112 -539 19 -993 171 -1353 452 -140 109 -198 188 -186 252 9 46
84 106 337 268 354 227 715 464 2525 1653 l1555 1022 3 -38 c2 -21 -1 -90 -8
-153z m-13947 81 c13 -5 550 -355 1193 -778 1358 -894 1829 -1203 2524 -1656
278 -181 520 -340 538 -354 47 -36 66 -76 52 -117 -25 -75 -224 -254 -402
-360 -455 -271 -1128 -362 -1873 -251 -138 21 -420 78 -545 111 -161 42 -191
70 -375 349 -622 946 -1003 1832 -1204 2800 -21 99 -45 194 -54 212 -10 18
-17 34 -17 37 0 15 126 21 163 7z"/>
</g>
</svg>
